<svg xmlns="http://www.w3.org/2000/svg" xmlns:xlink="http://www.w3.org/1999/xlink" version="1.1" enable-background="new 0 0 1000 1000" xml:space="preserve" width="1000" height="1000"><rect id="backgroundrect" width="100%" height="100%" x="0" y="0" fill="none" stroke="none"/>
<metadata> Svg Vector Icons : http://www.onlinewebfonts.com/icon </metadata>

<g class="currentLayer" style=""><title>Layer 1</title><g id="svg_1" class="selected" fill="#ffffff" fill-opacity="1"><path d="M983.3,259.9c-5.4-7.2-13.4-12-22.3-13.2l-90.2-13l-16.4-89.3c-3.4-18.4-21.1-30.5-39.4-27.2L484.8,178L228,140.9c-18.5-2.6-35.7,10.2-38.4,28.7l-9.3,64.4L37.7,260.3c-8.9,1.6-16.7,6.7-21.8,14.1c-5.1,7.4-7,16.5-5.4,25.3l102.3,555.9c1.6,8.8,6.7,16.7,14.1,21.7c5.7,3.9,12.4,6,19.2,6c2.1,0,4.1-0.2,6.1-0.6l454.2-83.6L875.7,838c1.6,0.2,3.3,0.4,4.9,0.4c16.6,0,31.1-12.2,33.5-29l9.9-68.6l5.6-1c18.4-3.4,30.6-21,27.2-39.4l-15.1-82.1L989.7,285C990.9,276.2,988.6,267.1,983.3,259.9z M903.2,409.7L873,619.4l-9.1,63.5l-10.2,70.7l-1.8,12.5l-36.9-5.3l-209.7-30.2l-419.4-60.5l54.6-378.2l10.2-70.8l1.2-8.3l24.6,3.5l209.7,30.2l327,47.2l70.7,10.2l34,4.9L903.2,409.7z M793.9,189.9l6.2,33.6l-105.6-15.3L793.9,189.9z M83.3,320.8l86.8-16l-39.4,273.4L83.3,320.8z M173.4,810.1l-13.9-75.4l237.3,34.2L173.4,810.1z" id="svg_2" fill="#ffffff" fill-opacity="1"/><path d="M392,450.2c35.6,5.1,68.6-19.6,73.7-55.1c5.1-35.6-19.5-68.6-55.1-73.7c-35.6-5.2-68.6,19.5-73.7,55.1C331.7,412,356.4,445,392,450.2z" id="svg_3" fill="#ffffff" fill-opacity="1"/><path d="M773,495.5l-61.7,64l-77.8-153.4L485.5,576c0,0-194.4-78.3-247.9,57.5l501.9,72.4l74.2,10.7l-4.3-23.6L773,495.5z" id="svg_4" fill="#ffffff" fill-opacity="1"/></g></g></svg>