<svg xmlns="http://www.w3.org/2000/svg" xmlns:xlink="http://www.w3.org/1999/xlink" version="1.1" enable-background="new 0 0 1000 1000" xml:space="preserve" width="1000" height="1000" style=""><rect id="backgroundrect" width="100%" height="100%" x="0" y="0" fill="none" stroke="none"/>
<metadata> Svg Vector Icons : http://www.onlinewebfonts.com/icon </metadata>

<g class="currentLayer" style=""><title>Layer 1</title><g id="svg_1" class="selected" fill="#ffffff" fill-opacity="1"><path d="M339.3,493c-84.5-84.5-168.9-168.9-253.5-253.4C208,37.6,481-55.1,714.5,60.2c-1.3,1.4-2.5,2.7-3.8,4c-106.6,106.6-213,213.3-319.8,319.5c-21.2,21.1-37.5,44.8-45.4,73.7c-2.7,10-3.7,20.4-5.5,30.7C339.7,489.8,339.5,491.6,339.3,493z" id="svg_2" fill="#ffffff" fill-opacity="1"/><path d="M977.3,392.4c44.4,183.5-28,398.5-207.8,516.3c-0.7-1.9-1.4-3.7-1.9-5.6C726.5,749.5,685.4,595.9,644,442.4c-1.9-7-6.5-13.5-10.6-19.7c-6-9.2-12.5-17.9-18.9-26.9c-0.7-1-1.5-1.9-2.6-3.4C734.3,392.4,855.8,392.4,977.3,392.4z" id="svg_3" fill="#ffffff" fill-opacity="1"/><path d="M175.8,866.9c28-16.2,55.4-32,82.7-47.8c103.8-59.9,207.6-119.9,311.4-179.8c22.3-12.9,41.3-29.4,55.8-50.9c1.2-1.8,2.5-3.4,4.4-6.1c3.4,12.7,6.5,24.2,9.6,35.8c27.7,103.3,55.3,206.7,83.3,310c1.6,5.9,0.2,8-5,10.6c-41,20.3-83.9,34.9-128.9,43.2c-43.2,8-86.7,10.2-130.5,6.5c-75.6-6.5-145.8-29.3-210.7-68.3C222.5,904.7,198.7,887.2,175.8,866.9z" id="svg_4" fill="#ffffff" fill-opacity="1"/><path d="M451,650.6c-104,60-207.8,120-311.7,180C3.4,687.3-29.8,464.4,60.7,284.2c1.6,2.4,2.5,4.5,4,6c106.5,106.6,213,213.2,319.7,319.6c16.5,16.4,35.9,28.6,57.8,36.7c2.6,0.9,5.1,1.9,7.7,2.8C450.2,649.5,450.4,649.9,451,650.6z" id="svg_5" fill="#ffffff" fill-opacity="1"/><path d="M762,86.2C857.3,147.8,925,233,963.7,342.1c-153.5,0-306.2,0-457.7,0C590.7,257.4,676.1,172.1,762,86.2z" id="svg_6" fill="#ffffff" fill-opacity="1"/></g></g></svg>